<svg xmlns="http://www.w3.org/2000/svg" viewBox="0 0 128 128">
  <!-- Factory Logo -->
  <defs>
    <linearGradient id="factoryGradient" x1="0%" y1="0%" x2="100%" y2="100%">
      <stop offset="0%" stop-color="#9F7AEA" />
      <stop offset="100%" stop-color="#7C3AED" />
    </linearGradient>
  </defs>
  
  <!-- Gear representing factory/automation -->
  <path d="M64 20c-3.3 0-6 2.7-6 6v6.1c-3.2 0.6-6.2 1.6-9 2.9l-4.3-4.3c-2.4-2.4-6.2-2.4-8.5 0l-8.5 8.5c-2.4 2.4-2.4 6.2 0 8.5l4.3 4.3c-1.3 2.8-2.3 5.8-2.9 9H23c-3.3 0-6 2.7-6 6v12c0 3.3 2.7 6 6 6h6.1c0.6 3.2 1.6 6.2 2.9 9l-4.3 4.3c-2.4 2.4-2.4 6.2 0 8.5l8.5 8.5c2.4 2.4 6.2 2.4 8.5 0l4.3-4.3c2.8 1.3 5.8 2.3 9 2.9V110c0 3.3 2.7 6 6 6h12c3.3 0 6-2.7 6-6v-6.1c3.2-0.6 6.2-1.6 9-2.9l4.3 4.3c2.4 2.4 6.2 2.4 8.5 0l8.5-8.5c2.4-2.4 2.4-6.2 0-8.5l-4.3-4.3c1.3-2.8 2.3-5.8 2.9-9h6.1c3.3 0 6-2.7 6-6V64c0-3.3-2.7-6-6-6h-6.1c-0.6-3.2-1.6-6.2-2.9-9l4.3-4.3c2.4-2.4 2.4-6.2 0-8.5l-8.5-8.5c-2.4-2.4-6.2-2.4-8.5 0l-4.3 4.3c-2.8-1.3-5.8-2.3-9-2.9V26c0-3.3-2.7-6-6-6H64z" 
        fill="url(#factoryGradient)" />
  
  <!-- Inner circle -->
  <circle cx="64" cy="64" r="24" fill="#121212" />
  
  <!-- Code bracket elements representing software -->
  <path d="M54 52l-8 12 8 12" stroke="#7C3AED" stroke-width="4" fill="none" stroke-linecap="round" stroke-linejoin="round" />
  <path d="M74 52l8 12-8 12" stroke="#7C3AED" stroke-width="4" fill="none" stroke-linecap="round" stroke-linejoin="round" />
  <path d="M68 48l-8 32" stroke="#7C3AED" stroke-width="3" fill="none" stroke-linecap="round" />
</svg>